<svg xmlns="http://www.w3.org/2000/svg" version="1.0" viewBox="0 0 298 330"><path d="M80.7 96.7c-2.9 1.5-5.7 6.9-5.7 11.1 0 3.6 3.5 8.8 7 10.2 5.7 2.4 14.1-.6 16-5.6 4.4-11.4-6.6-21.4-17.3-15.7m26.5 30.6c-2.3 2.3-4.2 4.7-4.2 5.3 0 .5 18.5 19.4 41 41.9l41 41 2.5-2.7c1.4-1.5 3.8-3.9 5.3-5.3l2.7-2.5-41-41c-22.5-22.5-41.4-41-42-41s-3 1.9-5.3 4.3m94.7 94.6c-3.4 3.3-3.9 4.5-3.9 8.3 0 3.7.6 4.9 3.6 8.1 3.2 3.3 4.2 3.7 8.6 3.7s5.4-.4 8.4-3.4 3.4-4 3.4-8.6-.3-5.4-3.7-8.5c-3.1-2.9-4.6-3.5-8.2-3.5-3.7 0-4.9.6-8.2 3.9"/></svg>