<svg xmlns="http://www.w3.org/2000/svg" version="1.0" viewBox="0 0 430 415"><path d="M117.7 99.5c-6.1 1.7-9.6 5.2-11.1 11.2-3.7 14.4 7.9 26.1 21.8 21.8 6.1-1.9 9.2-5 11.1-11.1 3.1-10.1-1.9-19.3-11.8-22l-5.2-1.3s-2.2.7-4.8 1.4m184.7 0c-6.4 1.5-10.2 5.2-11.9 11.7-3.5 13.7 7.4 24.9 21 21.6 6.2-1.5 10.1-5.1 12-11.3 4.1-13.9-6.8-25.2-21.1-22m-147.7 10.7c-1.2.7-2 11.5-1.1 15.6l.4 2.2 61.3-.2 61.2-.3.1-8.3c.1-4.5-.3-8.5-.7-8.8-1.3-.8-120-1-121.2-.2m-37.3 36.9c-.6 1-.6 120.8 0 121.8.3.4 4.3.8 8.8.7l8.3-.1.3-61.2c.2-57.6.1-61.2-1.5-61.7-2.7-.7-15.3-.3-15.9.5m178.8.1c-.9.9-1.2 17-1.2 61.4 0 56.5.1 60.3 1.8 60.8 2.7.9 14.6.4 16-.7 1.7-1.4 1.8-120.2 0-121.3-2.1-1.3-15.4-1.4-16.6-.2M117.9 283.5c-6.1 1.7-9.9 5.6-11.3 11.9-2.5 10.5 2.4 19.3 11.9 21.4 10.3 2.3 19-2.7 21.3-12.3 2.2-9.4-2.5-18.3-10.9-20.5-2.2-.6-4.6-1.3-5.2-1.4-.7-.2-3.3.2-5.8.9m184.2.1c-9.3 2.9-14 11.7-11.6 21.2 1.7 6.4 5.5 10.1 12 11.8 9.6 2.5 18.4-2.2 21.2-11.4 2.6-8.7-2.6-19.5-10.1-21.2-1.7-.4-4-.9-5.1-1.2s-4 0-6.4.8m-147.9 5.7c-1.2 1.4-1.1 14.5.1 16.4s120.2 1.9 121.4 0c.9-1.5 1.5-12.3.8-15.5l-.5-2.2h-60.4c-47.9 0-60.6.3-61.4 1.3"/></svg>